<mxfile host="65bd71144e">
    <diagram id="L1a4sTqjI8bWPkbhxLmr" name="Page-1">
        <mxGraphModel dx="2004" dy="1142" grid="1" gridSize="10" guides="1" tooltips="1" connect="1" arrows="1" fold="1" page="1" pageScale="1" pageWidth="1100" pageHeight="850" background="#FFFFFF" math="0" shadow="0">
            <root>
                <mxCell id="0"/>
                <mxCell id="1" parent="0"/>
                <mxCell id="5" value="&lt;font style=&quot;font-size: 26px;&quot;&gt;CinemaMaster System&lt;/font&gt;" style="shape=rect;html=1;verticalAlign=top;fontStyle=1;whiteSpace=wrap;align=center;" parent="1" vertex="1">
                    <mxGeometry x="200" y="20" width="1580" height="1170" as="geometry"/>
                </mxCell>
                <mxCell id="99" style="edgeStyle=none;html=1;exitX=0.5;exitY=0.5;exitDx=0;exitDy=0;exitPerimeter=0;strokeColor=#FF0000;strokeWidth=3;fontSize=20;fontColor=#FFFFFF;" parent="1" source="6" edge="1">
                    <mxGeometry relative="1" as="geometry">
                        <mxPoint x="870" y="240" as="targetPoint"/>
                    </mxGeometry>
                </mxCell>
                <mxCell id="6" value="&lt;b&gt;&lt;font style=&quot;font-size: 20px;&quot;&gt;Guest&lt;/font&gt;&lt;/b&gt;" style="shape=umlActor;html=1;verticalLabelPosition=bottom;verticalAlign=top;align=center;fillColor=#000000;gradientColor=none;strokeColor=#000000;fontColor=#000000;strokeWidth=7;" parent="1" vertex="1">
                    <mxGeometry x="60" y="70" width="60" height="90" as="geometry"/>
                </mxCell>
                <mxCell id="11" value="" style="edgeStyle=none;html=1;fontSize=14;fontColor=#000000;" parent="1" source="8" edge="1">
                    <mxGeometry relative="1" as="geometry">
                        <mxPoint x="97.30769230769238" y="440" as="targetPoint"/>
                    </mxGeometry>
                </mxCell>
                <mxCell id="39" style="edgeStyle=none;html=1;exitX=0.5;exitY=0.5;exitDx=0;exitDy=0;exitPerimeter=0;entryX=0;entryY=0.5;entryDx=0;entryDy=0;strokeColor=#FF0000;strokeWidth=3;fontSize=14;fontColor=#FFFFFF;fillColor=#a20025;" parent="1" source="8" target="36" edge="1">
                    <mxGeometry relative="1" as="geometry"/>
                </mxCell>
                <mxCell id="57" style="edgeStyle=none;html=1;exitX=0.5;exitY=0.5;exitDx=0;exitDy=0;exitPerimeter=0;entryX=0;entryY=0.5;entryDx=0;entryDy=0;strokeColor=#FF0000;strokeWidth=3;fontSize=14;fontColor=#FFFFFF;" parent="1" source="8" target="43" edge="1">
                    <mxGeometry relative="1" as="geometry"/>
                </mxCell>
                <mxCell id="58" style="edgeStyle=none;html=1;exitX=0.5;exitY=0.5;exitDx=0;exitDy=0;exitPerimeter=0;entryX=0;entryY=0.5;entryDx=0;entryDy=0;strokeColor=#FF0000;strokeWidth=3;fontSize=14;fontColor=#FFFFFF;" parent="1" source="8" target="41" edge="1">
                    <mxGeometry relative="1" as="geometry"/>
                </mxCell>
                <mxCell id="59" style="edgeStyle=none;html=1;exitX=0.5;exitY=0.5;exitDx=0;exitDy=0;exitPerimeter=0;entryX=0;entryY=0.5;entryDx=0;entryDy=0;strokeColor=#FF0000;strokeWidth=3;fontSize=14;fontColor=#FFFFFF;" parent="1" source="8" target="49" edge="1">
                    <mxGeometry relative="1" as="geometry"/>
                </mxCell>
                <mxCell id="60" style="edgeStyle=none;html=1;exitX=0.5;exitY=0.5;exitDx=0;exitDy=0;exitPerimeter=0;entryX=0;entryY=0.5;entryDx=0;entryDy=0;strokeColor=#FF0000;strokeWidth=3;fontSize=14;fontColor=#FFFFFF;" parent="1" source="8" target="47" edge="1">
                    <mxGeometry relative="1" as="geometry"/>
                </mxCell>
                <mxCell id="61" style="edgeStyle=none;html=1;exitX=0.5;exitY=0.5;exitDx=0;exitDy=0;exitPerimeter=0;entryX=0;entryY=0.5;entryDx=0;entryDy=0;strokeColor=#FF0000;strokeWidth=3;fontSize=14;fontColor=#FFFFFF;" parent="1" source="8" target="45" edge="1">
                    <mxGeometry relative="1" as="geometry"/>
                </mxCell>
                <mxCell id="62" style="edgeStyle=none;html=1;exitX=0.5;exitY=0.5;exitDx=0;exitDy=0;exitPerimeter=0;entryX=0;entryY=0.5;entryDx=0;entryDy=0;strokeColor=#FF0000;strokeWidth=3;fontSize=14;fontColor=#FFFFFF;" parent="1" source="8" target="50" edge="1">
                    <mxGeometry relative="1" as="geometry"/>
                </mxCell>
                <mxCell id="102" style="edgeStyle=none;html=1;exitX=0.5;exitY=0.5;exitDx=0;exitDy=0;exitPerimeter=0;entryX=0;entryY=0.5;entryDx=0;entryDy=0;strokeColor=#FF0000;strokeWidth=3;" edge="1" parent="1" source="8" target="101">
                    <mxGeometry relative="1" as="geometry"/>
                </mxCell>
                <mxCell id="8" value="&lt;b&gt;&lt;font style=&quot;font-size: 19px;&quot;&gt;Customer&lt;/font&gt;&lt;/b&gt;" style="shape=umlActor;html=1;verticalLabelPosition=bottom;verticalAlign=top;align=center;fillColor=#000000;gradientColor=none;strokeColor=#000000;fontColor=#000000;fontSize=14;strokeWidth=7;" parent="1" vertex="1">
                    <mxGeometry x="70" y="620" width="50" height="100" as="geometry"/>
                </mxCell>
                <mxCell id="16" value="" style="edgeStyle=none;html=1;fontSize=14;fontColor=#000000;" parent="1" source="14" target="15" edge="1">
                    <mxGeometry relative="1" as="geometry"/>
                </mxCell>
                <mxCell id="92" style="edgeStyle=none;html=1;exitX=0.5;exitY=0.5;exitDx=0;exitDy=0;exitPerimeter=0;entryX=1;entryY=0.5;entryDx=0;entryDy=0;strokeColor=#FF0000;strokeWidth=3;fontSize=20;fontColor=#FFFFFF;" parent="1" source="14" target="86" edge="1">
                    <mxGeometry relative="1" as="geometry"/>
                </mxCell>
                <mxCell id="93" style="edgeStyle=none;html=1;exitX=0.5;exitY=0.5;exitDx=0;exitDy=0;exitPerimeter=0;entryX=1;entryY=0.5;entryDx=0;entryDy=0;strokeColor=#FF0000;strokeWidth=3;fontSize=20;fontColor=#FFFFFF;" parent="1" source="14" target="87" edge="1">
                    <mxGeometry relative="1" as="geometry"/>
                </mxCell>
                <mxCell id="94" style="edgeStyle=none;html=1;exitX=0.5;exitY=0.5;exitDx=0;exitDy=0;exitPerimeter=0;entryX=1;entryY=0.5;entryDx=0;entryDy=0;strokeColor=#FF0000;strokeWidth=3;fontSize=20;fontColor=#FFFFFF;" parent="1" source="14" target="89" edge="1">
                    <mxGeometry relative="1" as="geometry"/>
                </mxCell>
                <mxCell id="95" style="edgeStyle=none;html=1;exitX=0.5;exitY=0.5;exitDx=0;exitDy=0;exitPerimeter=0;entryX=1;entryY=0;entryDx=0;entryDy=0;strokeColor=#FF0000;strokeWidth=3;fontSize=20;fontColor=#FFFFFF;" parent="1" source="14" target="90" edge="1">
                    <mxGeometry relative="1" as="geometry"/>
                </mxCell>
                <mxCell id="96" style="edgeStyle=none;html=1;exitX=0.5;exitY=0.5;exitDx=0;exitDy=0;exitPerimeter=0;entryX=0.5;entryY=0;entryDx=0;entryDy=0;strokeColor=#FF0000;strokeWidth=3;fontSize=20;fontColor=#FFFFFF;" parent="1" source="14" target="91" edge="1">
                    <mxGeometry relative="1" as="geometry"/>
                </mxCell>
                <mxCell id="14" value="&lt;b&gt;&lt;font style=&quot;font-size: 19px;&quot;&gt;Admin&lt;/font&gt;&lt;/b&gt;" style="shape=umlActor;html=1;verticalLabelPosition=bottom;verticalAlign=top;align=center;fillColor=#000000;gradientColor=none;strokeColor=#000000;fontColor=#000000;fontSize=14;strokeWidth=4;" parent="1" vertex="1">
                    <mxGeometry x="1890" y="100" width="60" height="90" as="geometry"/>
                </mxCell>
                <mxCell id="40" style="edgeStyle=none;html=1;exitX=0.5;exitY=0.5;exitDx=0;exitDy=0;exitPerimeter=0;entryX=1;entryY=0.5;entryDx=0;entryDy=0;strokeColor=#FF0000;strokeWidth=3;fontSize=14;fontColor=#FFFFFF;" parent="1" source="15" target="36" edge="1">
                    <mxGeometry relative="1" as="geometry"/>
                </mxCell>
                <mxCell id="51" style="edgeStyle=none;html=1;exitX=0.5;exitY=0.5;exitDx=0;exitDy=0;exitPerimeter=0;entryX=1;entryY=0.5;entryDx=0;entryDy=0;strokeColor=#FF0000;strokeWidth=3;fontSize=14;fontColor=#FFFFFF;" parent="1" source="15" target="43" edge="1">
                    <mxGeometry relative="1" as="geometry"/>
                </mxCell>
                <mxCell id="52" style="edgeStyle=none;html=1;exitX=0.5;exitY=0.5;exitDx=0;exitDy=0;exitPerimeter=0;entryX=1;entryY=0.5;entryDx=0;entryDy=0;strokeColor=#FF0000;strokeWidth=3;fontSize=14;fontColor=#FFFFFF;" parent="1" source="15" target="41" edge="1">
                    <mxGeometry relative="1" as="geometry"/>
                </mxCell>
                <mxCell id="53" style="edgeStyle=none;html=1;exitX=0.5;exitY=0.5;exitDx=0;exitDy=0;exitPerimeter=0;entryX=1;entryY=0.5;entryDx=0;entryDy=0;strokeColor=#FF0000;strokeWidth=3;fontSize=14;fontColor=#FFFFFF;" parent="1" source="15" target="49" edge="1">
                    <mxGeometry relative="1" as="geometry"/>
                </mxCell>
                <mxCell id="54" style="edgeStyle=none;html=1;exitX=0.5;exitY=0.5;exitDx=0;exitDy=0;exitPerimeter=0;entryX=1;entryY=0.5;entryDx=0;entryDy=0;strokeColor=#FF0000;strokeWidth=3;fontSize=14;fontColor=#FFFFFF;" parent="1" source="15" target="47" edge="1">
                    <mxGeometry relative="1" as="geometry"/>
                </mxCell>
                <mxCell id="55" style="edgeStyle=none;html=1;exitX=0.5;exitY=0.5;exitDx=0;exitDy=0;exitPerimeter=0;entryX=1;entryY=0.5;entryDx=0;entryDy=0;strokeColor=#FF0000;strokeWidth=3;fontSize=14;fontColor=#FFFFFF;" parent="1" source="15" target="45" edge="1">
                    <mxGeometry relative="1" as="geometry"/>
                </mxCell>
                <mxCell id="56" style="edgeStyle=none;html=1;exitX=0.5;exitY=0.5;exitDx=0;exitDy=0;exitPerimeter=0;entryX=1;entryY=0.5;entryDx=0;entryDy=0;strokeColor=#FF0000;strokeWidth=3;fontSize=14;fontColor=#FFFFFF;" parent="1" source="15" target="50" edge="1">
                    <mxGeometry relative="1" as="geometry"/>
                </mxCell>
                <mxCell id="98" style="edgeStyle=none;html=1;exitX=0.5;exitY=0.5;exitDx=0;exitDy=0;exitPerimeter=0;strokeColor=#FF0000;strokeWidth=3;fontSize=20;fontColor=#FFFFFF;entryX=1;entryY=0.5;entryDx=0;entryDy=0;" parent="1" source="15" target="17" edge="1">
                    <mxGeometry relative="1" as="geometry">
                        <mxPoint x="990" y="160" as="targetPoint"/>
                    </mxGeometry>
                </mxCell>
                <mxCell id="15" value="&lt;b&gt;&lt;font style=&quot;font-size: 19px;&quot;&gt;Front Desk&lt;/font&gt;&lt;/b&gt;" style="shape=umlActor;html=1;verticalLabelPosition=bottom;verticalAlign=top;align=center;fillColor=#000000;gradientColor=none;strokeColor=#000000;fontColor=#000000;fontSize=14;strokeWidth=5;" parent="1" vertex="1">
                    <mxGeometry x="1890" y="630" width="60" height="100" as="geometry"/>
                </mxCell>
                <mxCell id="17" value="Search Movie" style="ellipse;whiteSpace=wrap;html=1;strokeColor=#FFFFFF;fontSize=14;fontColor=#000000;fillColor=#FFFFFF;gradientColor=none;" parent="1" vertex="1">
                    <mxGeometry x="860" y="200" width="140" height="70" as="geometry"/>
                </mxCell>
                <mxCell id="20" value="Search Movie&lt;br&gt;by Title" style="ellipse;whiteSpace=wrap;html=1;strokeColor=#FFFFFF;fontSize=14;fontColor=#000000;fillColor=#FFFFFF;gradientColor=none;" parent="1" vertex="1">
                    <mxGeometry x="1020" y="100" width="140" height="70" as="geometry"/>
                </mxCell>
                <mxCell id="21" value="Search Movie&lt;br&gt;by Language" style="ellipse;whiteSpace=wrap;html=1;strokeColor=#FFFFFF;fontSize=14;fontColor=#000000;fillColor=#FFFFFF;gradientColor=none;" parent="1" vertex="1">
                    <mxGeometry x="1030" y="310" width="140" height="70" as="geometry"/>
                </mxCell>
                <mxCell id="23" value="Search Movie&lt;br&gt;by Genre" style="ellipse;whiteSpace=wrap;html=1;strokeColor=#FFFFFF;fontSize=14;fontColor=#000000;fillColor=#FFFFFF;gradientColor=none;" parent="1" vertex="1">
                    <mxGeometry x="580" y="110" width="140" height="70" as="geometry"/>
                </mxCell>
                <mxCell id="26" value="Search Movie&lt;br&gt;by Type" style="ellipse;whiteSpace=wrap;html=1;strokeColor=#FFFFFF;fontSize=14;fontColor=#000000;fillColor=#FFFFFF;gradientColor=none;" parent="1" vertex="1">
                    <mxGeometry x="620" y="270" width="140" height="70" as="geometry"/>
                </mxCell>
                <mxCell id="27" value="&amp;lt;&amp;lt;extend&amp;gt;&amp;gt;" style="edgeStyle=none;html=1;startArrow=open;endArrow=none;startSize=12;verticalAlign=bottom;dashed=1;labelBackgroundColor=none;fontSize=14;fontColor=#FFFFFF;entryX=0;entryY=1;entryDx=0;entryDy=0;exitX=1;exitY=0;exitDx=0;exitDy=0;" parent="1" source="17" target="20" edge="1">
                    <mxGeometry width="160" relative="1" as="geometry">
                        <mxPoint x="270" y="160" as="sourcePoint"/>
                        <mxPoint x="370" y="230" as="targetPoint"/>
                    </mxGeometry>
                </mxCell>
                <mxCell id="29" value="&amp;lt;&amp;lt;extend&amp;gt;&amp;gt;" style="edgeStyle=none;html=1;startArrow=open;endArrow=none;startSize=12;verticalAlign=bottom;dashed=1;labelBackgroundColor=none;fontSize=14;fontColor=#FFFFFF;entryX=1;entryY=1;entryDx=0;entryDy=0;exitX=0.5;exitY=0;exitDx=0;exitDy=0;" parent="1" source="17" target="24" edge="1">
                    <mxGeometry width="160" relative="1" as="geometry">
                        <mxPoint x="190" y="240" as="sourcePoint"/>
                        <mxPoint x="350" y="240" as="targetPoint"/>
                    </mxGeometry>
                </mxCell>
                <mxCell id="30" value="&amp;lt;&amp;lt;extend&amp;gt;&amp;gt;" style="edgeStyle=none;html=1;startArrow=open;endArrow=none;startSize=12;verticalAlign=bottom;dashed=1;labelBackgroundColor=none;fontSize=14;fontColor=#FFFFFF;entryX=1;entryY=1;entryDx=0;entryDy=0;exitX=0.5;exitY=1;exitDx=0;exitDy=0;" parent="1" source="17" target="23" edge="1">
                    <mxGeometry x="0.3171" y="5" width="160" relative="1" as="geometry">
                        <mxPoint x="190" y="260" as="sourcePoint"/>
                        <mxPoint x="350" y="260" as="targetPoint"/>
                        <mxPoint x="-1" as="offset"/>
                    </mxGeometry>
                </mxCell>
                <mxCell id="31" value="&amp;lt;&amp;lt;extend&amp;gt;&amp;gt;" style="edgeStyle=none;html=1;startArrow=open;endArrow=none;startSize=12;verticalAlign=bottom;dashed=1;labelBackgroundColor=none;fontSize=14;fontColor=#FFFFFF;entryX=0;entryY=0;entryDx=0;entryDy=0;exitX=1;exitY=1;exitDx=0;exitDy=0;" parent="1" source="17" target="21" edge="1">
                    <mxGeometry width="160" relative="1" as="geometry">
                        <mxPoint x="460" y="340" as="sourcePoint"/>
                        <mxPoint x="620" y="340" as="targetPoint"/>
                    </mxGeometry>
                </mxCell>
                <mxCell id="32" value="&amp;lt;&amp;lt;extend&amp;gt;&amp;gt;" style="edgeStyle=none;html=1;startArrow=open;endArrow=none;startSize=12;verticalAlign=bottom;dashed=1;labelBackgroundColor=none;fontSize=14;fontColor=#FFFFFF;entryX=1;entryY=0;entryDx=0;entryDy=0;exitX=0.5;exitY=1;exitDx=0;exitDy=0;" parent="1" source="17" target="26" edge="1">
                    <mxGeometry x="0.2624" y="-9" width="160" relative="1" as="geometry">
                        <mxPoint x="390" y="370" as="sourcePoint"/>
                        <mxPoint x="550" y="370" as="targetPoint"/>
                        <mxPoint as="offset"/>
                    </mxGeometry>
                </mxCell>
                <mxCell id="34" value="" style="edgeStyle=none;html=1;endArrow=block;endFill=0;endSize=12;verticalAlign=bottom;strokeColor=#e70808;strokeWidth=3;fontSize=14;fontColor=#FFFFFF;exitX=0.5;exitY=0;exitDx=0;exitDy=0;exitPerimeter=0;" parent="1" source="8" edge="1">
                    <mxGeometry width="160" relative="1" as="geometry">
                        <mxPoint x="30" y="270" as="sourcePoint"/>
                        <mxPoint x="95" y="190" as="targetPoint"/>
                    </mxGeometry>
                </mxCell>
                <mxCell id="36" value="Login / Sign up" style="ellipse;whiteSpace=wrap;html=1;strokeColor=#FFFFFF;fontSize=14;fontColor=#000000;fillColor=#FFFFFF;gradientColor=none;" parent="1" vertex="1">
                    <mxGeometry x="880" y="380" width="140" height="70" as="geometry"/>
                </mxCell>
                <mxCell id="37" value="Reset Password" style="ellipse;whiteSpace=wrap;html=1;strokeColor=#FFFFFF;fontSize=14;fontColor=#000000;fillColor=#FFFFFF;gradientColor=none;" parent="1" vertex="1">
                    <mxGeometry x="570" y="380" width="140" height="70" as="geometry"/>
                </mxCell>
                <mxCell id="38" value="&amp;lt;&amp;lt;extend&amp;gt;&amp;gt;" style="edgeStyle=none;html=1;startArrow=open;endArrow=none;startSize=12;verticalAlign=bottom;dashed=1;labelBackgroundColor=none;strokeColor=#FFFFFF;strokeWidth=1;fontSize=14;fontColor=#FFFFFF;entryX=1;entryY=0.5;entryDx=0;entryDy=0;exitX=0;exitY=0;exitDx=0;exitDy=0;" parent="1" source="36" target="37" edge="1">
                    <mxGeometry width="160" relative="1" as="geometry">
                        <mxPoint x="460" y="460" as="sourcePoint"/>
                        <mxPoint x="620" y="460" as="targetPoint"/>
                    </mxGeometry>
                </mxCell>
                <mxCell id="41" value="Select Show" style="ellipse;whiteSpace=wrap;html=1;strokeColor=#FFFFFF;fontSize=14;fontColor=#000000;fillColor=#FFFFFF;gradientColor=none;" parent="1" vertex="1">
                    <mxGeometry x="880" y="567.5" width="140" height="70" as="geometry"/>
                </mxCell>
                <mxCell id="43" value="Book Ticket" style="ellipse;whiteSpace=wrap;html=1;strokeColor=#FFFFFF;fontSize=14;fontColor=#000000;fillColor=#FFFFFF;gradientColor=none;" parent="1" vertex="1">
                    <mxGeometry x="880" y="480" width="140" height="70" as="geometry"/>
                </mxCell>
                <mxCell id="45" value="Select Seats" style="ellipse;whiteSpace=wrap;html=1;strokeColor=#FFFFFF;fontSize=14;fontColor=#000000;fillColor=#FFFFFF;gradientColor=none;" parent="1" vertex="1">
                    <mxGeometry x="880" y="817.5" width="140" height="70" as="geometry"/>
                </mxCell>
                <mxCell id="47" value="Make Payment" style="ellipse;whiteSpace=wrap;html=1;strokeColor=#FFFFFF;fontSize=14;fontColor=#000000;fillColor=#FFFFFF;gradientColor=none;" parent="1" vertex="1">
                    <mxGeometry x="880" y="730" width="140" height="70" as="geometry"/>
                </mxCell>
                <mxCell id="49" value="Add Discount &lt;br&gt;Coupon" style="ellipse;whiteSpace=wrap;html=1;strokeColor=#FFFFFF;fontSize=14;fontColor=#000000;fillColor=#FFFFFF;gradientColor=none;" parent="1" vertex="1">
                    <mxGeometry x="880" y="650" width="140" height="70" as="geometry"/>
                </mxCell>
                <mxCell id="50" value="Cancel The Booking" style="ellipse;whiteSpace=wrap;html=1;strokeColor=#FFFFFF;fontSize=14;fontColor=#000000;fillColor=#FFFFFF;gradientColor=none;" parent="1" vertex="1">
                    <mxGeometry x="880" y="900" width="140" height="70" as="geometry"/>
                </mxCell>
                <mxCell id="64" value="Refund Payment" style="ellipse;whiteSpace=wrap;html=1;strokeColor=#FFFFFF;fontSize=14;fontColor=#000000;fillColor=#FFFFFF;gradientColor=none;" parent="1" vertex="1">
                    <mxGeometry x="640" y="970" width="140" height="70" as="geometry"/>
                </mxCell>
                <mxCell id="65" value="Send Notification" style="ellipse;whiteSpace=wrap;html=1;strokeColor=#FFFFFF;fontSize=14;fontColor=#000000;fillColor=#FFFFFF;gradientColor=none;" parent="1" vertex="1">
                    <mxGeometry x="790" y="1050" width="140" height="70" as="geometry"/>
                </mxCell>
                <mxCell id="66" value="&amp;lt;&amp;lt;include&amp;gt;&amp;gt;" style="edgeStyle=none;html=1;endArrow=open;verticalAlign=bottom;dashed=1;labelBackgroundColor=none;strokeColor=#FFFFFF;strokeWidth=1;fontSize=14;fontColor=#FFFFFF;entryX=1;entryY=0;entryDx=0;entryDy=0;exitX=0;exitY=1;exitDx=0;exitDy=0;" parent="1" source="50" target="64" edge="1">
                    <mxGeometry width="160" relative="1" as="geometry">
                        <mxPoint x="410" y="940" as="sourcePoint"/>
                        <mxPoint x="570" y="940" as="targetPoint"/>
                    </mxGeometry>
                </mxCell>
                <mxCell id="67" value="&amp;lt;&amp;lt;include&amp;gt;&amp;gt;" style="edgeStyle=none;html=1;endArrow=open;verticalAlign=bottom;dashed=1;labelBackgroundColor=none;strokeColor=#FFFFFF;strokeWidth=1;fontSize=14;fontColor=#FFFFFF;exitX=0.5;exitY=1;exitDx=0;exitDy=0;entryX=0.5;entryY=0;entryDx=0;entryDy=0;" parent="1" source="50" target="65" edge="1">
                    <mxGeometry width="160" relative="1" as="geometry">
                        <mxPoint x="740" y="1040" as="sourcePoint"/>
                        <mxPoint x="900" y="1040" as="targetPoint"/>
                    </mxGeometry>
                </mxCell>
                <mxCell id="79" style="edgeStyle=none;html=1;exitX=0.5;exitY=0.5;exitDx=0;exitDy=0;exitPerimeter=0;entryX=1;entryY=1;entryDx=0;entryDy=0;strokeColor=#FF0000;strokeWidth=3;fontSize=20;fontColor=#FFFFFF;" parent="1" source="68" target="70" edge="1">
                    <mxGeometry relative="1" as="geometry"/>
                </mxCell>
                <mxCell id="80" style="edgeStyle=none;html=1;exitX=0.5;exitY=0.5;exitDx=0;exitDy=0;exitPerimeter=0;entryX=1;entryY=0.5;entryDx=0;entryDy=0;strokeColor=#FF0000;strokeWidth=3;fontSize=20;fontColor=#FFFFFF;" parent="1" source="68" target="71" edge="1">
                    <mxGeometry relative="1" as="geometry"/>
                </mxCell>
                <mxCell id="81" style="edgeStyle=none;html=1;exitX=0.5;exitY=0.5;exitDx=0;exitDy=0;exitPerimeter=0;entryX=1;entryY=0.5;entryDx=0;entryDy=0;strokeColor=#FF0000;strokeWidth=3;fontSize=20;fontColor=#FFFFFF;" parent="1" source="68" target="73" edge="1">
                    <mxGeometry relative="1" as="geometry"/>
                </mxCell>
                <mxCell id="82" style="edgeStyle=none;html=1;exitX=0.5;exitY=0.5;exitDx=0;exitDy=0;exitPerimeter=0;entryX=1;entryY=0.5;entryDx=0;entryDy=0;strokeColor=#FF0000;strokeWidth=3;fontSize=20;fontColor=#FFFFFF;" parent="1" source="68" target="76" edge="1">
                    <mxGeometry relative="1" as="geometry"/>
                </mxCell>
                <mxCell id="68" value="&lt;b&gt;&lt;font style=&quot;font-size: 21px;&quot;&gt;system&lt;/font&gt;&lt;/b&gt;" style="shape=umlActor;html=1;verticalLabelPosition=bottom;verticalAlign=top;align=center;fillColor=#000000;gradientColor=none;strokeColor=#000000;fontColor=#000000;fontSize=14;strokeWidth=6;" parent="1" vertex="1">
                    <mxGeometry x="1890" y="900" width="60" height="90" as="geometry"/>
                </mxCell>
                <mxCell id="69" value="Send Booking&amp;nbsp;&lt;br&gt;Notification" style="ellipse;whiteSpace=wrap;html=1;strokeColor=#FFFFFF;fontSize=14;fontColor=#000000;fillColor=#FFFFFF;gradientColor=none;" parent="1" vertex="1">
                    <mxGeometry x="1400" y="1060" width="140" height="70" as="geometry"/>
                </mxCell>
                <mxCell id="70" value="Show Seating&lt;br&gt;Arrangement" style="ellipse;whiteSpace=wrap;html=1;strokeColor=#FFFFFF;fontSize=14;fontColor=#000000;fillColor=#FFFFFF;gradientColor=none;" parent="1" vertex="1">
                    <mxGeometry x="1620" y="770" width="140" height="70" as="geometry"/>
                </mxCell>
                <mxCell id="71" value="Display Upcoming&lt;br&gt;Shows" style="ellipse;whiteSpace=wrap;html=1;strokeColor=#FFFFFF;fontSize=14;fontColor=#000000;fillColor=#FFFFFF;gradientColor=none;" parent="1" vertex="1">
                    <mxGeometry x="1480" y="800" width="140" height="70" as="geometry"/>
                </mxCell>
                <mxCell id="73" value="Update Booking&lt;br&gt;Status" style="ellipse;whiteSpace=wrap;html=1;strokeColor=#FFFFFF;fontSize=14;fontColor=#000000;fillColor=#FFFFFF;gradientColor=none;" parent="1" vertex="1">
                    <mxGeometry x="1320" y="850" width="140" height="70" as="geometry"/>
                </mxCell>
                <mxCell id="76" value="Send Notification" style="ellipse;whiteSpace=wrap;html=1;strokeColor=#FFFFFF;fontSize=14;fontColor=#000000;fillColor=#FFFFFF;gradientColor=none;" parent="1" vertex="1">
                    <mxGeometry x="1620" y="990" width="140" height="70" as="geometry"/>
                </mxCell>
                <mxCell id="77" value="Send New Movie&lt;br&gt;Notification" style="ellipse;whiteSpace=wrap;html=1;strokeColor=#FFFFFF;fontSize=14;fontColor=#000000;fillColor=#FFFFFF;gradientColor=none;" parent="1" vertex="1">
                    <mxGeometry x="1440" y="910" width="140" height="70" as="geometry"/>
                </mxCell>
                <mxCell id="78" value="Send Cancel&lt;br&gt;&amp;nbsp;Booking&lt;br&gt;Notification" style="ellipse;whiteSpace=wrap;html=1;strokeColor=#FFFFFF;fontSize=14;fontColor=#000000;fillColor=#FFFFFF;gradientColor=none;" parent="1" vertex="1">
                    <mxGeometry x="1300" y="980" width="140" height="70" as="geometry"/>
                </mxCell>
                <mxCell id="83" value="&amp;lt;&amp;lt;extend&amp;gt;&amp;gt;" style="edgeStyle=none;html=1;startArrow=open;endArrow=none;startSize=12;verticalAlign=bottom;dashed=1;labelBackgroundColor=none;strokeColor=#FFFFFF;strokeWidth=2;fontSize=20;fontColor=#FFFFFF;entryX=1;entryY=1;entryDx=0;entryDy=0;exitX=0.5;exitY=0;exitDx=0;exitDy=0;" parent="1" source="76" target="77" edge="1">
                    <mxGeometry width="160" relative="1" as="geometry">
                        <mxPoint x="1150" y="960" as="sourcePoint"/>
                        <mxPoint x="1310" y="960" as="targetPoint"/>
                    </mxGeometry>
                </mxCell>
                <mxCell id="84" value="&amp;lt;&amp;lt;extend&amp;gt;&amp;gt;" style="edgeStyle=none;html=1;startArrow=open;endArrow=none;startSize=12;verticalAlign=bottom;dashed=1;labelBackgroundColor=none;strokeColor=#FFFFFF;strokeWidth=2;fontSize=20;fontColor=#FFFFFF;entryX=1;entryY=0.5;entryDx=0;entryDy=0;exitX=0;exitY=0.5;exitDx=0;exitDy=0;" parent="1" source="76" target="78" edge="1">
                    <mxGeometry width="160" relative="1" as="geometry">
                        <mxPoint x="1470" y="1020" as="sourcePoint"/>
                        <mxPoint x="1630" y="1020" as="targetPoint"/>
                    </mxGeometry>
                </mxCell>
                <mxCell id="85" value="&amp;lt;&amp;lt;extend&amp;gt;&amp;gt;" style="edgeStyle=none;html=1;startArrow=open;endArrow=none;startSize=12;verticalAlign=bottom;dashed=1;labelBackgroundColor=none;strokeColor=#FFFFFF;strokeWidth=2;fontSize=20;fontColor=#FFFFFF;exitX=0;exitY=1;exitDx=0;exitDy=0;entryX=1;entryY=0.5;entryDx=0;entryDy=0;" parent="1" source="76" target="69" edge="1">
                    <mxGeometry width="160" relative="1" as="geometry">
                        <mxPoint x="1590" y="1090" as="sourcePoint"/>
                        <mxPoint x="1750" y="1090" as="targetPoint"/>
                    </mxGeometry>
                </mxCell>
                <mxCell id="86" value="CRUD Show" style="ellipse;whiteSpace=wrap;html=1;strokeColor=#FFFFFF;fontSize=14;fontColor=#000000;fillColor=#FFFFFF;gradientColor=none;" parent="1" vertex="1">
                    <mxGeometry x="1510" y="50" width="140" height="70" as="geometry"/>
                </mxCell>
                <mxCell id="87" value="CRUD Movie" style="ellipse;whiteSpace=wrap;html=1;strokeColor=#FFFFFF;fontSize=14;fontColor=#000000;fillColor=#FFFFFF;gradientColor=none;" parent="1" vertex="1">
                    <mxGeometry x="1340" y="100" width="140" height="70" as="geometry"/>
                </mxCell>
                <mxCell id="89" value="CRUD Cinema" style="ellipse;whiteSpace=wrap;html=1;strokeColor=#FFFFFF;fontSize=14;fontColor=#000000;fillColor=#FFFFFF;gradientColor=none;" parent="1" vertex="1">
                    <mxGeometry x="1340" y="210" width="140" height="70" as="geometry"/>
                </mxCell>
                <mxCell id="90" value="CRUD Hall" style="ellipse;whiteSpace=wrap;html=1;strokeColor=#FFFFFF;fontSize=14;fontColor=#000000;fillColor=#FFFFFF;gradientColor=none;" parent="1" vertex="1">
                    <mxGeometry x="1390" y="320" width="140" height="70" as="geometry"/>
                </mxCell>
                <mxCell id="91" value="CRUD City" style="ellipse;whiteSpace=wrap;html=1;strokeColor=#FFFFFF;fontSize=14;fontColor=#000000;fillColor=#FFFFFF;gradientColor=none;" parent="1" vertex="1">
                    <mxGeometry x="1560" y="380" width="140" height="70" as="geometry"/>
                </mxCell>
                <mxCell id="24" value="Search Movie&lt;br&gt;by Release Date" style="ellipse;whiteSpace=wrap;html=1;strokeColor=#FFFFFF;fontSize=14;fontColor=#000000;fillColor=#FFFFFF;gradientColor=none;" parent="1" vertex="1">
                    <mxGeometry x="740" y="90" width="140" height="70" as="geometry"/>
                </mxCell>
                <mxCell id="101" value="Rate Cinema" style="ellipse;whiteSpace=wrap;html=1;strokeColor=#FFFFFF;fontSize=14;fontColor=#000000;fillColor=#FFFFFF;gradientColor=none;" vertex="1" parent="1">
                    <mxGeometry x="540" y="887.5" width="140" height="70" as="geometry"/>
                </mxCell>
            </root>
        </mxGraphModel>
    </diagram>
</mxfile>